# xmcd
#
# Track frame offsets:
#	151
#	23750
#	43524
#	70372
#	93489
#	110213
#	121836
#	159782
#	188587
#	221521
#	241834
#
# Disc length: 3318 seconds
#
# Revision: 2
# Processed by: cddbd v1.5.1PL0 Copyright (c) Steve Scherf et al.
# Submitted via: EasyCDDAExtractor 5.1.0
#
DISCID=8b0cf40b
DTITLE=Ulrich Van Bell - Music Sex
DYEAR=2003
DGENRE=
TTITLE0=Sensation
TTITLE1=La Pulsation
TTITLE2=Kamasutra
TTITLE3=Le Désir
TTITLE4=The Game
TTITLE5=Les Fluides
TTITLE6=La Fusion
TTITLE7=La Pénétration
TTITLE8=Extasy
TTITLE9=La Langue
TTITLE10=Outro
EXTD=
EXTT0=
EXTT1=
EXTT2=
EXTT3=
EXTT4=
EXTT5=
EXTT6=
EXTT7=
EXTT8=
EXTT9=
EXTT10=
PLAYORDER=
